<svg data-logo="logo" xmlns="http://www.w3.org/2000/svg" viewBox="0 0 264 43">
  <title>Reacto Lorem Logo</title>
  <g id="logogram" transform="translate(0, 1) rotate(0)">
    <path fill-rule="evenodd" clip-rule="evenodd" d="M26.461 12.3052C24.8165 11.2064 22.8831 10.6199 20.9053 10.6199V0.619934C24.8609 0.619934 28.7277 1.79291 32.0167 3.99054C35.3056 6.18817 37.8691 9.31174 39.3829 12.9663C40.8966 16.6208 41.2927 20.6421 40.521 24.5217C39.7493 28.4014 37.8444 31.965 35.0474 34.7621C32.2503 37.5591 28.6867 39.4639 24.8071 40.2356C20.9275 41.0073 16.9061 40.6113 13.2516 39.0975C9.59708 37.5838 6.47351 35.0203 4.27588 31.7313C2.07825 28.4423 0.905273 24.5756 0.905273 20.6199H10.9053C10.9053 22.5977 11.4918 24.5311 12.5906 26.1756C13.6894 27.8201 15.2512 29.1018 17.0784 29.8587C18.9057 30.6156 20.9164 30.8136 22.8562 30.4278C24.796 30.0419 26.5778 29.0895 27.9763 27.691C29.3749 26.2925 30.3273 24.5106 30.7131 22.5708C31.099 20.631 30.9009 18.6204 30.1441 16.7931C29.3872 14.9658 28.1055 13.404 26.461 12.3052Z" fill="#007DFC"/>
    <path fill-rule="evenodd" clip-rule="evenodd" d="M10.9053 0.619965C10.9053 1.93318 10.6466 3.23354 10.1441 4.4468C9.64153 5.66006 8.90493 6.76245 7.97635 7.69103C7.04776 8.61962 5.94537 9.35621 4.73211 9.85876C3.51886 10.3613 2.2185 10.62 0.905279 10.62L0.905273 20.6199C3.53171 20.6199 6.13244 20.1026 8.55895 19.0976C10.9855 18.0925 13.1902 16.6193 15.0474 14.7621C16.9046 12.9049 18.3778 10.7001 19.3829 8.27363C20.388 5.84712 20.9053 3.24637 20.9053 0.619934L10.9053 0.619965Z" fill="#007DFC"/>
  </g>
  <g id="logotype" transform="translate(47, 9)">
    <path fill="#007DFC" d="M8.22 25L8.22 0.12L17.50 0.12Q20.36 0.12 22.41 0.97Q24.47 1.83 25.58 3.50Q26.70 5.18 26.70 7.62L26.70 7.62Q26.70 9.62 26.02 11.05Q25.35 12.47 24.12 13.42Q22.90 14.37 21.26 14.93L21.26 14.93L19.64 15.79L11.57 15.79L11.54 11.79L17.54 11.79Q18.89 11.79 19.77 11.31Q20.66 10.83 21.12 9.98Q21.57 9.12 21.57 8.00L21.57 8.00Q21.57 6.80 21.12 5.93Q20.68 5.06 19.77 4.59Q18.87 4.13 17.50 4.13L17.50 4.13L13.35 4.13L13.35 25L8.22 25ZM27.62 25L22.13 25L16.46 13.91L21.88 13.87L27.62 24.76L27.62 25ZM38.15 25.34L38.15 25.34Q35.99 25.34 34.28 24.65Q32.58 23.96 31.39 22.73Q30.20 21.50 29.57 19.86Q28.94 18.23 28.94 16.39L28.94 16.39L28.94 15.70Q28.94 13.60 29.53 11.86Q30.13 10.11 31.25 8.83Q32.37 7.55 33.98 6.86Q35.58 6.17 37.60 6.17L37.60 6.17Q39.57 6.17 41.09 6.82Q42.61 7.47 43.64 8.66Q44.67 9.86 45.20 11.52Q45.73 13.19 45.73 15.22L45.73 15.22L45.73 17.28L31.04 17.28L31.04 13.99L40.90 13.99L40.90 13.62Q40.90 12.59 40.53 11.78Q40.16 10.97 39.43 10.49Q38.69 10.01 37.55 10.01L37.55 10.01Q36.57 10.01 35.87 10.44Q35.17 10.87 34.74 11.64Q34.30 12.40 34.09 13.44Q33.87 14.47 33.87 15.70L33.87 15.70L33.87 16.39Q33.87 17.50 34.19 18.44Q34.51 19.38 35.10 20.06Q35.69 20.74 36.53 21.12Q37.38 21.50 38.45 21.50L38.45 21.50Q39.79 21.50 40.94 20.98Q42.09 20.45 42.93 19.39L42.93 19.39L45.32 21.99Q44.74 22.83 43.74 23.60Q42.74 24.37 41.34 24.85Q39.94 25.34 38.15 25.34ZM57.82 20.83L57.82 20.83L57.82 12.59Q57.82 11.70 57.53 11.06Q57.24 10.42 56.63 10.06Q56.02 9.70 55.07 9.70L55.07 9.70Q54.25 9.70 53.65 9.99Q53.05 10.27 52.72 10.79Q52.40 11.31 52.40 12.01L52.40 12.01L47.48 12.01Q47.48 10.83 48.03 9.77Q48.57 8.71 49.61 7.90Q50.66 7.09 52.10 6.63Q53.55 6.17 55.34 6.17L55.34 6.17Q57.49 6.17 59.17 6.88Q60.84 7.60 61.81 9.04Q62.77 10.47 62.77 12.63L62.77 12.63L62.77 20.54Q62.77 22.06 62.96 23.03Q63.15 23.99 63.51 24.71L63.51 24.71L63.51 25L58.54 25Q58.18 24.25 58.00 23.11Q57.82 21.98 57.82 20.83ZM55.61 13.74L58.47 13.74L58.50 16.52L55.75 16.52Q54.78 16.52 54.06 16.75Q53.34 16.97 52.88 17.37Q52.42 17.77 52.20 18.30Q51.99 18.83 51.99 19.46L51.99 19.46Q51.99 20.10 52.28 20.60Q52.57 21.10 53.12 21.39Q53.66 21.67 54.40 21.67L54.40 21.67Q55.51 21.67 56.33 21.22Q57.15 20.78 57.60 20.13Q58.06 19.48 58.07 18.90L58.07 18.90L59.37 20.98Q59.10 21.68 58.63 22.44Q58.16 23.19 57.44 23.85Q56.72 24.50 55.72 24.92Q54.71 25.34 53.32 25.34L53.32 25.34Q51.56 25.34 50.14 24.63Q48.71 23.92 47.88 22.67Q47.05 21.41 47.05 19.80L47.05 19.80Q47.05 18.35 47.60 17.22Q48.14 16.10 49.21 15.32Q50.28 14.54 51.89 14.14Q53.49 13.74 55.61 13.74L55.61 13.74ZM73.51 21.50L73.51 21.50Q74.41 21.50 75.11 21.15Q75.81 20.80 76.22 20.16Q76.62 19.51 76.63 18.64L76.63 18.64L81.27 18.64Q81.25 20.59 80.22 22.10Q79.20 23.62 77.47 24.48Q75.75 25.34 73.61 25.34L73.61 25.34Q71.46 25.34 69.86 24.62Q68.26 23.91 67.20 22.63Q66.14 21.36 65.61 19.66Q65.08 17.96 65.08 16.01L65.08 16.01L65.08 15.52Q65.08 13.55 65.61 11.85Q66.14 10.15 67.20 8.88Q68.26 7.60 69.85 6.88Q71.44 6.17 73.58 6.17L73.58 6.17Q75.85 6.17 77.57 7.04Q79.28 7.91 80.27 9.53Q81.25 11.14 81.27 13.34L81.27 13.34L76.63 13.34Q76.62 12.42 76.25 11.67Q75.88 10.92 75.19 10.47Q74.50 10.01 73.49 10.01L73.49 10.01Q72.41 10.01 71.73 10.47Q71.05 10.92 70.67 11.70Q70.29 12.47 70.15 13.46Q70.00 14.44 70.00 15.52L70.00 15.52L70.00 16.01Q70.00 17.09 70.14 18.08Q70.28 19.07 70.66 19.84Q71.05 20.61 71.73 21.05Q72.41 21.50 73.51 21.50ZM81.69 6.51L92.46 6.51L92.46 10.00L81.69 10.00L81.69 6.51ZM84.36 19.92L84.36 1.95L89.28 1.95L89.28 19.43Q89.28 20.23 89.50 20.66Q89.71 21.09 90.14 21.25Q90.56 21.41 91.21 21.41L91.21 21.41Q91.67 21.41 92.04 21.37Q92.41 21.33 92.67 21.27L92.67 21.27L92.68 24.90Q92.05 25.10 91.32 25.22Q90.58 25.34 89.69 25.34L89.69 25.34Q88.07 25.34 86.86 24.80Q85.66 24.27 85.01 23.07Q84.36 21.87 84.36 19.92L84.36 19.92ZM93.76 15.94L93.76 15.94L93.76 15.58Q93.76 13.55 94.34 11.83Q94.92 10.11 96.03 8.85Q97.14 7.59 98.77 6.88Q100.39 6.17 102.49 6.17L102.49 6.17Q104.59 6.17 106.24 6.88Q107.88 7.59 109.00 8.85Q110.11 10.11 110.70 11.83Q111.28 13.55 111.28 15.58L111.28 15.58L111.28 15.94Q111.28 17.96 110.70 19.68Q110.11 21.39 109.00 22.67Q107.88 23.94 106.25 24.64Q104.63 25.34 102.53 25.34L102.53 25.34Q100.42 25.34 98.79 24.64Q97.16 23.94 96.04 22.67Q94.92 21.39 94.34 19.68Q93.76 17.96 93.76 15.94ZM98.68 15.58L98.68 15.58L98.68 15.94Q98.68 17.10 98.89 18.11Q99.09 19.12 99.54 19.88Q100.00 20.64 100.73 21.07Q101.47 21.50 102.53 21.50L102.53 21.50Q103.55 21.50 104.29 21.07Q105.02 20.64 105.47 19.88Q105.91 19.12 106.12 18.11Q106.34 17.10 106.34 15.94L106.34 15.94L106.34 15.58Q106.34 14.46 106.12 13.46Q105.91 12.46 105.46 11.68Q105.00 10.90 104.27 10.46Q103.54 10.01 102.49 10.01L102.49 10.01Q101.45 10.01 100.72 10.46Q100.00 10.90 99.54 11.68Q99.09 12.46 98.89 13.46Q98.68 14.46 98.68 15.58ZM125.38 21.00L137.90 21.00L137.90 25L125.38 25L125.38 21.00ZM121.91 0.12L127.04 0.12L127.04 25L121.91 25L121.91 0.12ZM139.05 15.94L139.05 15.94L139.05 15.58Q139.05 13.55 139.63 11.83Q140.21 10.11 141.32 8.85Q142.43 7.59 144.06 6.88Q145.68 6.17 147.78 6.17L147.78 6.17Q149.88 6.17 151.53 6.88Q153.17 7.59 154.29 8.85Q155.40 10.11 155.99 11.83Q156.57 13.55 156.57 15.58L156.57 15.58L156.57 15.94Q156.57 17.96 155.99 19.68Q155.40 21.39 154.29 22.67Q153.17 23.94 151.54 24.64Q149.92 25.34 147.82 25.34L147.82 25.34Q145.71 25.34 144.08 24.64Q142.45 23.94 141.33 22.67Q140.21 21.39 139.63 19.68Q139.05 17.96 139.05 15.94ZM143.97 15.58L143.97 15.58L143.97 15.94Q143.97 17.10 144.18 18.11Q144.38 19.12 144.83 19.88Q145.29 20.64 146.02 21.07Q146.76 21.50 147.82 21.50L147.82 21.50Q148.84 21.50 149.58 21.07Q150.31 20.64 150.76 19.88Q151.20 19.12 151.41 18.11Q151.63 17.10 151.63 15.94L151.63 15.94L151.63 15.58Q151.63 14.46 151.41 13.46Q151.20 12.46 150.75 11.68Q150.30 10.90 149.56 10.46Q148.83 10.01 147.78 10.01L147.78 10.01Q146.74 10.01 146.01 10.46Q145.29 10.90 144.83 11.68Q144.38 12.46 144.18 13.46Q143.97 14.46 143.97 15.58ZM163.52 6.51L163.81 10.54L163.81 25L158.89 25L158.89 6.51L163.52 6.51ZM169.39 6.39L169.39 6.39L169.30 10.95Q168.94 10.90 168.44 10.86Q167.93 10.82 167.52 10.82L167.52 10.82Q166.48 10.82 165.72 11.08Q164.96 11.35 164.45 11.85Q163.95 12.35 163.70 13.10Q163.45 13.84 163.42 14.78L163.42 14.78L162.43 14.47Q162.43 12.68 162.79 11.17Q163.15 9.65 163.84 8.53Q164.53 7.40 165.54 6.78Q166.55 6.17 167.85 6.17L167.85 6.17Q168.26 6.17 168.68 6.23Q169.11 6.29 169.39 6.39ZM179.52 25.34L179.52 25.34Q177.37 25.34 175.66 24.65Q173.95 23.96 172.76 22.73Q171.57 21.50 170.94 19.86Q170.31 18.23 170.31 16.39L170.31 16.39L170.31 15.70Q170.31 13.60 170.91 11.86Q171.50 10.11 172.62 8.83Q173.74 7.55 175.35 6.86Q176.96 6.17 178.97 6.17L178.97 6.17Q180.94 6.17 182.46 6.82Q183.98 7.47 185.01 8.66Q186.05 9.86 186.58 11.52Q187.11 13.19 187.11 15.22L187.11 15.22L187.11 17.28L172.41 17.28L172.41 13.99L182.27 13.99L182.27 13.62Q182.27 12.59 181.90 11.78Q181.54 10.97 180.80 10.49Q180.07 10.01 178.92 10.01L178.92 10.01Q177.95 10.01 177.25 10.44Q176.55 10.87 176.11 11.64Q175.67 12.40 175.46 13.44Q175.25 14.47 175.25 15.70L175.25 15.70L175.25 16.39Q175.25 17.50 175.56 18.44Q175.88 19.38 176.47 20.06Q177.06 20.74 177.91 21.12Q178.75 21.50 179.83 21.50L179.83 21.50Q181.16 21.50 182.31 20.98Q183.47 20.45 184.31 19.39L184.31 19.39L186.70 21.99Q186.12 22.83 185.12 23.60Q184.12 24.37 182.72 24.85Q181.31 25.34 179.52 25.34ZM193.82 6.51L194.13 10.34L194.13 25L189.19 25L189.19 6.51L193.82 6.51ZM193.43 15.10L193.43 15.10L192.08 15.10Q192.08 13.17 192.55 11.54Q193.02 9.91 193.94 8.70Q194.85 7.50 196.20 6.83Q197.55 6.17 199.33 6.17L199.33 6.17Q200.56 6.17 201.58 6.53Q202.61 6.90 203.35 7.68Q204.10 8.46 204.51 9.70Q204.92 10.94 204.92 12.66L204.92 12.66L204.92 25L199.99 25L199.99 13.21Q199.99 11.94 199.65 11.26Q199.31 10.58 198.69 10.30Q198.06 10.03 197.19 10.03L197.19 10.03Q196.23 10.03 195.53 10.42Q194.82 10.82 194.35 11.51Q193.89 12.20 193.66 13.12Q193.43 14.05 193.43 15.10ZM204.45 14.54L204.45 14.54L202.69 14.76Q202.69 12.95 203.15 11.40Q203.60 9.84 204.50 8.66Q205.39 7.48 206.73 6.82Q208.06 6.17 209.80 6.17L209.80 6.17Q211.14 6.17 212.23 6.55Q213.32 6.94 214.10 7.76Q214.88 8.59 215.30 9.93Q215.72 11.26 215.72 13.19L215.72 13.19L215.72 25L210.78 25L210.78 13.19Q210.78 11.91 210.44 11.23Q210.11 10.56 209.49 10.29Q208.86 10.03 208.01 10.03L208.01 10.03Q207.12 10.03 206.45 10.38Q205.79 10.73 205.34 11.35Q204.90 11.96 204.68 12.77Q204.45 13.58 204.45 14.54Z"/>
  </g>
</svg>
